<?xml version="1.0" encoding="UTF-8"?>
<svg width="18pt" height="14pt" viewBox="0 0 18 14" fill="none" xmlns="http://www.w3.org/2000/svg">
<path fill-rule="evenodd" clip-rule="evenodd" d="M4.36672 11.427C4.36672 11.427 4.41931 11.7646 4.52131 11.902C4.62331 12.0393 4.76747 12.1398 4.93194 12.1882L11.2257 14.0744C11.5177 14.1619 11.829 14.1619 12.1209 14.0744L18.4147 12.1836C18.5792 12.1352 18.7234 12.0348 18.8254 11.8974C18.9274 11.76 18.9816 11.5933 18.9799 11.4224V2.84995C18.9816 2.67907 18.9274 2.51231 18.8254 2.37494C18.7234 2.23758 18.5792 2.13711 18.4147 2.08876L12.1209 0.205594C11.829 0.118155 11.5177 0.118155 11.2257 0.205594L8.48366 1.02767L4.93194 2.09181C4.76837 2.14066 4.62499 2.24085 4.52315 2.37745C4.42131 2.51405 4.36644 2.67977 4.36672 2.84995V4.64655H6.60914C6.85973 4.64655 7.0623 4.85088 7.0623 5.10164C7.0623 5.3533 6.85973 5.55673 6.60914 5.55673H3.15832H2.67933C2.42964 5.55673 2.22617 5.76106 2.22617 6.01182C2.22617 6.26348 2.42964 6.46691 2.67933 6.46691H3.15832H8.15351C8.4032 6.46691 8.60667 6.67124 8.60667 6.922C8.60667 7.17366 8.4032 7.37709 8.15351 7.37709H7.53041H3.15832H2.05624C1.80654 7.37709 1.60308 7.58142 1.60308 7.83218C1.60308 8.08384 1.80654 8.28727 2.05624 8.28727H3.15832H6.77998C7.02967 8.28727 7.23314 8.4916 7.23314 8.74236C7.23314 8.99402 7.02967 9.19744 6.77998 9.19744H3.15832H1.43314C1.18345 9.19744 0.97998 9.40178 0.97998 9.65253C0.97998 9.9042 1.18345 10.1081 1.43314 10.1081H4.36672V11.427ZM17.3897 3.43758L12.4631 1.96088L12.4662 12.3145L17.3897 10.8393V3.43758Z" fill="white"/>
</svg>